<?xml version="1.0" encoding="UTF-8" standalone="no"?>
<!-- Created with Inkscape (http://www.inkscape.org/) -->

<svg
   xmlns:dc="http://purl.org/dc/elements/1.1/"
   xmlns:cc="http://creativecommons.org/ns#"
   xmlns:rdf="http://www.w3.org/1999/02/22-rdf-syntax-ns#"
   xmlns:svg="http://www.w3.org/2000/svg"
   xmlns="http://www.w3.org/2000/svg"
   xmlns:xlink="http://www.w3.org/1999/xlink"
   xmlns:sodipodi="http://sodipodi.sourceforge.net/DTD/sodipodi-0.dtd"
   xmlns:inkscape="http://www.inkscape.org/namespaces/inkscape"
   width="43mm"
   height="43mm"
   viewBox="0 0 152.36213 152.36211"
   id="svg2"
   version="1.1"
   inkscape:version="0.91 r13725"
   sodipodi:docname="logo.svg">
  <defs
     id="defs4">
    <clipPath
       id="SVGID_2_">
      <use
         height="100%"
         width="100%"
         y="0"
         x="0"
         style="overflow:visible"
         xlink:href="#SVGID_1_"
         overflow="visible"
         id="use43" />
    </clipPath>
    <defs
       id="defs39">
      <polygon
         id="SVGID_1_"
         points="2061.205,924.295 1787.555,1921.157 1152.303,2344.668 517.039,1934.19 236.876,924.295 1152.303,637.622 " />
    </defs>
    <clipPath
       id="clipPath4387">
      <use
         height="100%"
         width="100%"
         y="0"
         x="0"
         style="overflow:visible"
         xlink:href="#SVGID_1_"
         overflow="visible"
         id="use4389" />
    </clipPath>
    <clipPath
       id="SVGID_2_-8">
      <polygon
         points="1152.303,637.622 2061.205,924.295 1787.555,1921.157 1152.303,2344.668 517.039,1934.19 236.876,924.295 "
         id="use43-3" />
    </clipPath>
  </defs>
  <sodipodi:namedview
     id="base"
     pagecolor="#ffffff"
     bordercolor="#666666"
     borderopacity="1.0"
     inkscape:pageopacity="0.0"
     inkscape:pageshadow="2"
     inkscape:zoom="2.0992824"
     inkscape:cx="117.1586"
     inkscape:cy="108.13024"
     inkscape:document-units="px"
     inkscape:current-layer="layer1"
     showgrid="false"
     inkscape:window-width="1600"
     inkscape:window-height="834"
     inkscape:window-x="0"
     inkscape:window-y="27"
     inkscape:window-maximized="1" />
  <metadata
     id="metadata7">
    <rdf:RDF>
      <cc:Work
         rdf:about="">
        <dc:format>image/svg+xml</dc:format>
        <dc:type
           rdf:resource="http://purl.org/dc/dcmitype/StillImage" />
        <dc:title></dc:title>
      </cc:Work>
    </rdf:RDF>
  </metadata>
  <g
     inkscape:label="Layer 1"
     inkscape:groupmode="layer"
     id="layer1"
     transform="translate(0,-900.0003)">
    <g
       id="g4739"
       transform="translate(-30.139252,295.58995)">
      <polyline
         transform="matrix(0.0625,0,0,0.0625,33.566198,586.83594)"
         style="opacity:0.3;fill:#666666"
         points="1152.822,2344.665 1152.822,2479.995 1888.795,1989.334 2205.828,834.417     1152.822,502.292 1152.822,637.643 2061.205,924.295 2061.205,924.295 1788.365,1927.17   "
         id="polyline7" />
      <path
         style="fill:none;stroke:#ffffff;stroke-width:1.20000005;stroke-miterlimit:4;stroke-dasharray:none;stroke-opacity:1"
         inkscape:connector-curvature="0"
         d="M 105.61758,618.22919 171.43045,638.987 151.61589,711.16938 105.61758,741.83563 59.618698,712.11332 39.331948,638.987 105.61758,618.22919 m 10e-4,-0.98269 -0.28119,0.088 -66.285622,20.75782 -0.86576,0.27112 0.2425,0.87413 20.28669,73.12631 0.0952,0.34337 0.29932,0.19344 45.998872,29.72231 0.51687,0.33394 0.51194,-0.34131 45.99831,-30.66625 0.29138,-0.19419 0.0926,-0.33762 19.81457,-72.18238 0.239,-0.87069 -0.86107,-0.27162 -65.81275,-20.75775 -0.28093,-0.0886 0,0 z"
         id="path13" />
      <g
         transform="matrix(0.0625,0,0,0.0625,33.566198,586.83594)"
         id="g17">
        <path
           id="path19"
           d="m 1152.303,640.954 908.902,286.674 -273.65,996.863 L 1152.303,2348 517.039,1937.523 236.876,927.627 1152.303,640.954 m 10e-4,-1.048 -0.3,0.095 -915.427,286.672 -0.924,0.289 0.259,0.933 280.163,1009.896 0.102,0.366 0.319,0.206 635.264,410.477 0.552,0.356 0.546,-0.364 635.252,-423.51 0.311,-0.207 0.1,-0.36 273.65,-996.863 0.254,-0.929 -0.918,-0.289 L 1152.604,640 l -0.3,-0.094 0,0 z"
           inkscape:connector-curvature="0"
           style="fill:#ffffff" />
      </g>
      <polyline
         transform="matrix(0.0625,0,0,0.0625,33.566198,586.83594)"
         style="opacity:0.3;fill:#666666"
         points="1149.039,2344.657 509.791,1933.483 233.615,924.292 1149.039,637.618   "
         id="polyline21" />
      <polygon
         transform="matrix(0.0625,0,0,0.0625,33.566198,586.83594)"
         id="polygon25"
         points="1152.303,2344.668 517.039,1934.19 236.876,924.292 1152.303,637.618 2061.205,924.292 1787.555,1921.157 "
         style="fill:none" />
      <path
         style="fill:none;stroke:#c3e6e3;stroke-width:0.0625;stroke-miterlimit:10"
         inkscape:connector-curvature="0"
         stroke-miterlimit="10"
         d="M 171.52126,610.77213"
         id="path27" />
      <g
         style="fill:#1a1a1a"
         transform="matrix(0.0625,0,0,0.0625,33.566198,586.83594)"
         id="g31">
        <path
           id="path33"
           d="m 1756.273,1309.391 c 0,0 -20.963,120.195 -15.029,126.561 5.926,6.365 1.492,6.451 -1.764,14.711 -3.242,8.25 -9.871,6.508 11.109,60.348 0,0 18.496,26.586 18.218,41.266 0,0 -23.833,19.586 -54.874,20.203 -31.035,0.617 -69.935,0.711 -94.752,-28.48 0,0 -7.724,-11.109 6.938,-28.805 0,0 24.594,1.729 18.135,-65.711 0,0 -14.184,-9.609 0.27,-21.156 0,0 8.656,-120.635 23.808,-131.174"
           inkscape:connector-curvature="0"
           style="fill:#1a1a1a" />
      </g>
      <path
         id="path35"
         d="m 143.72464,667.2715 c 0,0 -3.94688,-1.75075 -5.85938,-1.3535 l -0.33212,2.72325 5.66594,1.18825 0.52556,-2.558 z"
         inkscape:connector-curvature="0"
         style="fill:#232323" />
      <g
         style="fill:#ffffff"
         transform="matrix(0.0625,0,0,0.0625,33.566198,586.83594)"
         id="g45"
         clip-path="url(#SVGID_2_)">
        <path
           id="path47"
           d="m 650.883,1610.407 c -204.09,-165.219 -184.654,-476.205 -223.518,-398.445 -38.867,77.744 -136.068,29.15 -194.377,9.711 -58.316,-19.439 -58.316,194.373 -106.909,233.244 -48.581,38.873 -262.393,-106.904 -184.647,-48.596 l 611.736,713.045 C 540.039,1994.684 534.26,1853.378 534.26,1853.378 l 116.623,-242.971 z"
           inkscape:connector-curvature="0"
           style="fill:#ffffff" />
        <path
           id="path49"
           d="m 602.299,2304.965 c 14.775,-7.293 34.949,-32.158 55.869,-63.213 l -105,-122.387 c 10.957,104.044 27.027,196.507 49.131,185.6 z"
           inkscape:connector-curvature="0"
           style="fill:#ffffff" />
        <path
           id="path51"
           d="m 1684.84,1582.665 84.188,-90.68 -22.208,-145.938 -113.811,24.23 -48.285,160.117 -164.098,190.674 -176.908,161.463 -19.451,-58.312 68.039,-77.75 -97.195,-106.904 19.449,-320.711 77.746,-155.49 -116.625,0 -97.195,-194.379 -92.314,194.379 -111.768,0 -97.176,-194.379 -77.758,194.379 -126.331,0 213.797,476.201 c -19.443,58.309 -145.773,-29.379 -145.773,184.654 0,252.68 116.623,242.963 116.623,242.963 0,0 -51.764,103.516 -99.617,174.57 l 809.072,943.059 c -19.433,-38.889 9.729,-515.082 9.729,-515.082 -38.881,-77.736 -126.348,-87.463 -136.074,-136.053 -9.725,-48.598 -9.717,-116.621 -9.717,-116.621 0,0 -97.186,68.023 -162.958,0 -49.325,-51.029 233.44,-78.84 278.282,-112.09 14.951,-11.092 -46.673,-174.787 -46.673,-174.787 0,0 -117.323,-28.033 -84.198,-94.115 11.32,-22.584 51.086,-67.127 96.1,-113.74 51.854,-16.496 172.758,-50.658 191.456,-17.211 l -32.294,-138.789 c 1.599,-1.5 2.458,-2.303 2.458,-2.303 L 1684.84,1582.665 Z M 842.141,1296.649 c 0,0 108.004,22.771 112.295,34.609 10.419,28.752 -13.082,85.795 -24.83,101.455 -53.987,72 -134.376,-128.191 -87.465,-136.064 z m 167.171,313.656 c -18.316,-2.912 -57.535,-107.977 -57.535,-107.977 l 115.068,0 c 10e-4,10e-4 -39.216,110.893 -57.533,107.977 z m 40.351,-194.26 c -11.738,-15.66 -51.699,-68.756 -37.238,-90.963 24.737,-37.992 124.705,-45.098 124.705,-45.098 22.671,8.983 -33.466,208.065 -87.467,136.061 z"
           inkscape:connector-curvature="0"
           style="fill:#ffffff" />
      </g>
      <use
         transform="matrix(0.0625,0,0,0.0625,33.566198,586.83594)"
         id="use53"
         stroke-miterlimit="10"
         overflow="visible"
         xlink:href="#SVGID_1_"
         style="overflow:visible;fill:none;stroke:#ffffff;stroke-width:13.19999981;stroke-miterlimit:10;stroke-dasharray:none;stroke-opacity:1"
         x="0"
         y="0"
         width="100%"
         height="100%" />
      <path
         style="fill:#020202;stroke:#000000;stroke-width:0.0625;stroke-miterlimit:10"
         inkscape:connector-curvature="0"
         stroke-miterlimit="10"
         d="M 105.58514,733.60513"
         id="path55" />
      <path
         id="path61"
         d="m 158.16164,624.31463 c -8.47231,7.07287 -16.07182,21.69881 -16.07182,21.69881 l -3.79874,19.35488 -0.0123,0.3165 c 1.76475,-0.10269 4.47232,0.88562 5.672,1.36668 l 0.10169,-0.84543 c 0,0 0.70019,-2.22244 0.49181,-2.64638 -0.20887,-0.42369 -0.81556,-1.13562 -0.81556,-1.13562 0,0 1.18275,-0.0835 1.35687,-0.24063 0.17475,-0.157 -1.05131,-0.26575 -0.91581,-0.74462 0.13419,-0.4785 1.83131,-0.64488 1.83131,-0.64488 -0.17837,-3.31262 1.33976,-7.45969 1.33976,-7.45969 0.8749,-3.37263 5.10363,-9.4726 6.59279,-11.5528 0.32558,-0.4548 0.5202,-0.71745 0.5202,-0.71745 6.52451,-8.02493 3.70782,-16.74937 3.70782,-16.74937 z"
         stroke-miterlimit="10"
         inkscape:connector-curvature="0"
         style="fill:#ffffff;stroke:#060100;stroke-width:0.0625;stroke-miterlimit:10;stroke-opacity:1"
         sodipodi:nodetypes="ccccccccccccscc" />
      <path
         id="path63"
         d="m 143.65145,666.82413 c -1.04013,-0.41713 -3.84244,-1.27394 -5.37275,-1.18506 -0.1455,0.008 -0.28444,0.0247 -0.41344,0.0515 l -0.33212,2.95069 0.31106,0.0653 5.015,1.05162 0.33988,0.0713 0.98043,-2.558 c 0,0 -0.19912,-0.31556 -0.52806,-0.44737 z"
         inkscape:connector-curvature="0"
         style="fill:#000000" />
      <path
         sodipodi:nodetypes="cccc"
         inkscape:connector-curvature="0"
         id="path4505"
         d="m 157.18729,625.84889 c 0.8441,6.0037 -1.29734,10.86774 -4.75,15.3125 -2.76314,3.52284 -4.89295,7.4208 -5.9375,10.5 -0.85749,2.29166 -1.72928,4.58334 -1.9375,6.875"
         style="fill:none;fill-rule:evenodd;stroke:#020202;stroke-width:0.09999999;stroke-linecap:butt;stroke-linejoin:miter;stroke-miterlimit:4;stroke-dasharray:none;stroke-opacity:1" />
      <path
         style="fill:none;fill-rule:evenodd;stroke:#090100;stroke-width:0.09999999;stroke-linecap:butt;stroke-linejoin:miter;stroke-miterlimit:4;stroke-dasharray:none;stroke-opacity:1"
         d="m 143.56229,646.53639 -3.8125,18.625"
         id="path4525"
         inkscape:connector-curvature="0" />
      <path
         style="fill:none;fill-rule:evenodd;stroke:#020202;stroke-width:0.09999999;stroke-linecap:butt;stroke-linejoin:miter;stroke-miterlimit:4;stroke-dasharray:none;stroke-opacity:1"
         d="m 157.18729,625.84889 c 0.8441,6.0037 -1.29734,10.86774 -4.75,15.3125 -2.76314,3.52284 -4.89295,7.4208 -5.9375,10.5 -0.85749,2.29166 -1.72928,4.58334 -1.9375,6.875"
         id="path4725"
         inkscape:connector-curvature="0"
         sodipodi:nodetypes="cccc" />
      <path
         sodipodi:nodetypes="cccc"
         inkscape:connector-curvature="0"
         id="path4727"
         d="m 157.18729,625.84889 c 0.8441,6.0037 -1.29734,10.86774 -4.75,15.3125 -2.76314,3.52284 -4.89295,7.4208 -5.9375,10.5 -0.85749,2.29166 -1.72928,4.58334 -1.9375,6.875"
         style="fill:none;fill-rule:evenodd;stroke:#020202;stroke-width:0.09999999;stroke-linecap:butt;stroke-linejoin:miter;stroke-miterlimit:4;stroke-dasharray:none;stroke-opacity:1" />
      <path
         inkscape:connector-curvature="0"
         id="path4729"
         d="m 143.56229,646.53639 -3.8125,18.625"
         style="fill:none;fill-rule:evenodd;stroke:#090100;stroke-width:0.09999999;stroke-linecap:butt;stroke-linejoin:miter;stroke-miterlimit:4;stroke-dasharray:none;stroke-opacity:1" />
      <path
         style="fill:none;fill-rule:evenodd;stroke:#090100;stroke-width:0.09999999;stroke-linecap:butt;stroke-linejoin:miter;stroke-miterlimit:4;stroke-dasharray:none;stroke-opacity:1"
         d="m 143.56229,646.53639 -3.8125,18.625"
         id="path4731"
         inkscape:connector-curvature="0" />
    </g>
  </g>
</svg>
